<svg width="272" height="272" viewBox="0 0 272 272" fill="none" xmlns="http://www.w3.org/2000/svg">
<g filter="url(#filter0_d_81_338)">
<rect x="38" y="13" width="196" height="196" rx="98" fill="white"/>
<rect x="38.5" y="13.5" width="195" height="195" rx="97.5" stroke="#DEDEDE"/>
</g>
<path d="M123.704 110V93.2H129.752C131.096 93.2 132.208 93.432 133.088 93.896C133.968 94.344 134.624 94.952 135.056 95.72C135.488 96.488 135.704 97.368 135.704 98.36C135.704 99.288 135.496 100.144 135.08 100.928C134.664 101.696 134.016 102.32 133.136 102.8C132.256 103.264 131.128 103.496 129.752 103.496H126.584V110H123.704ZM126.584 101.144H129.584C130.72 101.144 131.536 100.896 132.032 100.4C132.528 99.888 132.776 99.208 132.776 98.36C132.776 97.48 132.528 96.792 132.032 96.296C131.536 95.8 130.72 95.552 129.584 95.552H126.584V101.144ZM138.212 110V93.2H144.236C145.564 93.2 146.66 93.432 147.524 93.896C148.404 94.344 149.052 94.952 149.468 95.72C149.9 96.472 150.116 97.328 150.116 98.288C150.116 99.184 149.908 100.016 149.492 100.784C149.076 101.552 148.428 102.168 147.548 102.632C146.668 103.096 145.54 103.328 144.164 103.328H141.092V110H138.212ZM146.972 110L143.444 102.584H146.564L150.26 110H146.972ZM141.092 101.192H144.044C145.116 101.192 145.9 100.936 146.396 100.424C146.908 99.896 147.164 99.208 147.164 98.36C147.164 97.528 146.916 96.864 146.42 96.368C145.924 95.856 145.132 95.6 144.044 95.6H141.092V101.192ZM160.751 110.288C159.135 110.288 157.703 109.928 156.455 109.208C155.223 108.472 154.255 107.456 153.551 106.16C152.847 104.848 152.495 103.328 152.495 101.6C152.495 99.888 152.847 98.384 153.551 97.088C154.255 95.776 155.223 94.752 156.455 94.016C157.703 93.28 159.135 92.912 160.751 92.912C162.399 92.912 163.847 93.28 165.095 94.016C166.343 94.752 167.311 95.776 167.999 97.088C168.687 98.384 169.031 99.888 169.031 101.6C169.031 103.328 168.687 104.848 167.999 106.16C167.311 107.456 166.343 108.472 165.095 109.208C163.847 109.928 162.399 110.288 160.751 110.288ZM160.775 107.696C161.847 107.696 162.783 107.456 163.583 106.976C164.383 106.48 164.999 105.776 165.431 104.864C165.863 103.952 166.079 102.864 166.079 101.6C166.079 100.336 165.863 99.248 165.431 98.336C164.999 97.424 164.383 96.728 163.583 96.248C162.783 95.752 161.847 95.504 160.775 95.504C159.703 95.504 158.767 95.752 157.967 96.248C157.167 96.728 156.543 97.424 156.095 98.336C155.663 99.248 155.447 100.336 155.447 101.6C155.447 102.864 155.663 103.952 156.095 104.864C156.543 105.776 157.167 106.48 157.967 106.976C158.767 107.456 159.703 107.696 160.775 107.696ZM176.131 110L169.963 93.2H173.059L177.883 107.048L182.779 93.2H185.827L179.635 110H176.131ZM187.946 110V93.2H190.826V110H187.946ZM193.1 110L199.244 93.2H202.46L208.604 110H205.556L200.828 96.56L196.1 110H193.1ZM195.836 106.04L196.604 103.76H204.884L205.652 106.04H195.836Z" fill="black"/>
<path d="M127.348 130.168C126.377 130.168 125.537 129.958 124.828 129.538C124.128 129.109 123.587 128.516 123.204 127.76C122.831 126.995 122.644 126.113 122.644 125.114C122.644 124.106 122.831 123.224 123.204 122.468C123.587 121.703 124.128 121.105 124.828 120.676C125.537 120.247 126.377 120.032 127.348 120.032C128.515 120.032 129.467 120.321 130.204 120.9C130.941 121.469 131.408 122.277 131.604 123.322H129.756C129.625 122.771 129.359 122.337 128.958 122.02C128.557 121.703 128.015 121.544 127.334 121.544C126.718 121.544 126.186 121.689 125.738 121.978C125.299 122.258 124.959 122.669 124.716 123.21C124.483 123.742 124.366 124.377 124.366 125.114C124.366 125.851 124.483 126.486 124.716 127.018C124.959 127.541 125.299 127.947 125.738 128.236C126.186 128.516 126.718 128.656 127.334 128.656C128.015 128.656 128.557 128.511 128.958 128.222C129.359 127.923 129.625 127.513 129.756 126.99H131.604C131.417 127.979 130.951 128.759 130.204 129.328C129.467 129.888 128.515 130.168 127.348 130.168ZM137.714 130.168C136.771 130.168 135.936 129.958 135.208 129.538C134.489 129.109 133.925 128.516 133.514 127.76C133.103 126.995 132.898 126.108 132.898 125.1C132.898 124.101 133.103 123.224 133.514 122.468C133.925 121.703 134.489 121.105 135.208 120.676C135.936 120.247 136.771 120.032 137.714 120.032C138.675 120.032 139.52 120.247 140.248 120.676C140.976 121.105 141.541 121.703 141.942 122.468C142.343 123.224 142.544 124.101 142.544 125.1C142.544 126.108 142.343 126.995 141.942 127.76C141.541 128.516 140.976 129.109 140.248 129.538C139.52 129.958 138.675 130.168 137.714 130.168ZM137.728 128.656C138.353 128.656 138.899 128.516 139.366 128.236C139.833 127.947 140.192 127.536 140.444 127.004C140.696 126.472 140.822 125.837 140.822 125.1C140.822 124.363 140.696 123.728 140.444 123.196C140.192 122.664 139.833 122.258 139.366 121.978C138.899 121.689 138.353 121.544 137.728 121.544C137.103 121.544 136.557 121.689 136.09 121.978C135.623 122.258 135.259 122.664 134.998 123.196C134.746 123.728 134.62 124.363 134.62 125.1C134.62 125.837 134.746 126.472 134.998 127.004C135.259 127.536 135.623 127.947 136.09 128.236C136.557 128.516 137.103 128.656 137.728 128.656ZM144.185 130V120.2H145.865L150.583 127.284V120.2H152.263V130H150.583L145.865 122.93V130H144.185ZM157.524 130.168C156.815 130.168 156.185 130.042 155.634 129.79C155.084 129.538 154.654 129.179 154.346 128.712C154.038 128.245 153.88 127.69 153.87 127.046H155.648C155.648 127.373 155.723 127.667 155.872 127.928C156.031 128.18 156.246 128.381 156.516 128.53C156.796 128.679 157.132 128.754 157.524 128.754C157.86 128.754 158.15 128.703 158.392 128.6C158.644 128.488 158.836 128.334 158.966 128.138C159.106 127.933 159.176 127.695 159.176 127.424C159.176 127.116 159.102 126.864 158.952 126.668C158.812 126.463 158.616 126.29 158.364 126.15C158.112 126.01 157.823 125.889 157.496 125.786C157.17 125.674 156.824 125.557 156.46 125.436C155.686 125.175 155.102 124.843 154.71 124.442C154.318 124.031 154.122 123.485 154.122 122.804C154.122 122.235 154.258 121.745 154.528 121.334C154.799 120.923 155.177 120.606 155.662 120.382C156.157 120.149 156.726 120.032 157.37 120.032C158.024 120.032 158.593 120.149 159.078 120.382C159.573 120.615 159.96 120.942 160.24 121.362C160.53 121.773 160.679 122.267 160.688 122.846H158.896C158.887 122.603 158.822 122.379 158.7 122.174C158.579 121.959 158.402 121.787 158.168 121.656C157.944 121.516 157.669 121.446 157.342 121.446C157.062 121.437 156.81 121.483 156.586 121.586C156.372 121.679 156.199 121.819 156.068 122.006C155.947 122.183 155.886 122.407 155.886 122.678C155.886 122.939 155.942 123.159 156.054 123.336C156.176 123.504 156.348 123.649 156.572 123.77C156.796 123.882 157.058 123.989 157.356 124.092C157.655 124.195 157.982 124.307 158.336 124.428C158.822 124.587 159.26 124.783 159.652 125.016C160.054 125.24 160.371 125.534 160.604 125.898C160.838 126.262 160.954 126.733 160.954 127.312C160.954 127.816 160.824 128.287 160.562 128.726C160.301 129.155 159.918 129.505 159.414 129.776C158.91 130.037 158.28 130.168 157.524 130.168ZM166.298 130.168C165.588 130.168 164.944 130.028 164.366 129.748C163.796 129.468 163.339 129.039 162.994 128.46C162.658 127.881 162.49 127.153 162.49 126.276V120.2H164.17V126.29C164.17 126.822 164.258 127.261 164.436 127.606C164.613 127.951 164.86 128.213 165.178 128.39C165.504 128.558 165.887 128.642 166.326 128.642C166.774 128.642 167.156 128.558 167.474 128.39C167.8 128.213 168.048 127.951 168.216 127.606C168.393 127.261 168.482 126.822 168.482 126.29V120.2H170.162V126.276C170.162 127.153 169.989 127.881 169.644 128.46C169.298 129.039 168.832 129.468 168.244 129.748C167.656 130.028 167.007 130.168 166.298 130.168ZM172.049 130V120.2H173.729V128.684H178.097V130H172.049ZM180.401 130V121.558H177.517V120.2H184.951V121.558H182.067V130H180.401ZM186.336 130V120.2H188.016V130H186.336ZM189.986 130V120.2H191.666L196.384 127.284V120.2H198.064V130H196.384L191.666 122.93V130H189.986ZM204.305 130.168C203.381 130.168 202.569 129.958 201.869 129.538C201.178 129.118 200.642 128.535 200.259 127.788C199.876 127.032 199.685 126.15 199.685 125.142C199.685 124.143 199.881 123.261 200.273 122.496C200.665 121.721 201.225 121.119 201.953 120.69C202.69 120.251 203.563 120.032 204.571 120.032C205.71 120.032 206.652 120.307 207.399 120.858C208.155 121.399 208.645 122.155 208.869 123.126H206.979C206.839 122.641 206.564 122.263 206.153 121.992C205.742 121.721 205.21 121.586 204.557 121.586C203.894 121.586 203.325 121.731 202.849 122.02C202.382 122.3 202.023 122.711 201.771 123.252C201.528 123.784 201.407 124.419 201.407 125.156C201.407 125.893 201.528 126.528 201.771 127.06C202.023 127.592 202.378 127.998 202.835 128.278C203.292 128.549 203.829 128.684 204.445 128.684C205.36 128.684 206.05 128.427 206.517 127.914C206.984 127.401 207.259 126.733 207.343 125.912H204.809V124.638H209.037V130H207.497L207.357 128.656C207.142 128.973 206.895 129.249 206.615 129.482C206.335 129.706 206.004 129.879 205.621 130C205.248 130.112 204.809 130.168 204.305 130.168Z" fill="black"/>
<path d="M104.714 129.258C102.185 131.795 98.2497 134.201 94.7816 135.16C93.8096 135.427 88.874 136.475 88.3408 135.747C93.3424 129.784 100.703 119.438 103.874 115.082L103.936 114.998C104.681 115.03 105.535 115.787 106.12 115.98C106.281 116.031 106.432 116.041 106.535 116.017C106.535 116.017 106.625 116.041 106.715 115.871C106.852 115.613 105.596 108.189 105.129 108.438C102.298 109.777 100.029 110.764 98.4856 111.591C97.9477 111.878 99.6228 112.7 100.614 113.005C96.702 120.899 88.8457 129.047 82.8578 135.639C82.0179 136.564 76.115 133.863 75.0062 133.003C74.7703 132.82 74.1899 132.392 74.2748 132.072C77.5353 129.314 82.8012 125.006 85.6229 121.787C86.4439 120.852 87.5433 119.508 88.0435 118.86C88.6569 118.033 88.8174 117.803 89.4544 116.774C89.7092 116.36 90.1763 115.533 90.5868 115.81C90.9879 116.088 91.6438 116.548 91.7098 116.351C91.8655 115.9 92.3468 111.694 91.8891 111.511C91.5211 111.365 86.4675 113.043 86.8922 113.348C88.3927 114.429 88.152 114.246 87.4065 115.373C86.3731 116.929 86.09 117.258 86.09 117.258C85.0425 118.606 83.8582 119.847 81.9566 121.641C76.1103 126.805 72.2175 129.437 69.6223 129.239C68.6503 129.164 66.3005 125.819 65.739 124.902C65.3992 124.343 63.7996 121.764 64.2668 121.275C75.563 119.334 83.3061 110.769 91.0917 102.79C91.3465 102.659 91.6202 102.208 92.3893 102.565C93.4557 103.063 94.5598 103.472 94.8854 103.35C94.8854 103.35 95.3997 101.949 95.4847 99.5013C95.5602 96.9077 95.395 95.7988 95.2723 95.6766C95.093 95.4981 93.1773 96.1089 90.5774 96.8607C90.5774 96.8607 88.9731 97.2366 87.1659 97.9273C86.3731 98.2139 87.3971 98.8529 87.5622 99.1207C87.7321 99.398 88.2228 99.8772 88.2511 100.164C88.3644 101.301 85.939 103.57 85.1227 104.473C81.0601 108.946 77.2145 112.258 68.6881 116.454C67.2159 117.178 64.6679 118.07 63.224 117.718C58.0572 103.411 70.0187 88.1634 84.6509 87.0781C108.027 85.3442 121.031 112.902 104.714 129.263V129.258Z" fill="#3FA9F5"/>
<defs>
<filter id="filter0_d_81_338" x="0" y="0" width="272" height="272" filterUnits="userSpaceOnUse" color-interpolation-filters="sRGB">
<feFlood flood-opacity="0" result="BackgroundImageFix"/>
<feColorMatrix in="SourceAlpha" type="matrix" values="0 0 0 0 0 0 0 0 0 0 0 0 0 0 0 0 0 0 127 0" result="hardAlpha"/>
<feMorphology radius="12" operator="erode" in="SourceAlpha" result="effect1_dropShadow_81_338"/>
<feOffset dy="25"/>
<feGaussianBlur stdDeviation="25"/>
<feComposite in2="hardAlpha" operator="out"/>
<feColorMatrix type="matrix" values="0 0 0 0 0 0 0 0 0 0 0 0 0 0 0 0 0 0 0.1 0"/>
<feBlend mode="normal" in2="BackgroundImageFix" result="effect1_dropShadow_81_338"/>
<feBlend mode="normal" in="SourceGraphic" in2="effect1_dropShadow_81_338" result="shape"/>
</filter>
</defs>
</svg>
