<svg width="1236" height="342" viewBox="0 0 1236 342" fill="none" xmlns="http://www.w3.org/2000/svg">
<path d="M481.289 85.8555C481.289 78.3685 479.303 73.0299 475.332 69.8398C471.426 66.6497 465.924 65.0547 458.828 65.0547H430.801V107.438H458.828C465.924 107.438 471.426 105.712 475.332 102.262C479.303 98.8112 481.289 93.3424 481.289 85.8555ZM511.074 85.6602C511.074 102.652 506.777 114.664 498.184 121.695C489.59 128.727 477.318 132.242 461.367 132.242H430.801V184H400.918V40.0547H463.613C478.066 40.0547 489.59 43.7656 498.184 51.1875C506.777 58.6094 511.074 70.1003 511.074 85.6602ZM579.711 65.0547V103.727H613.793C620.564 103.727 625.642 102.945 629.027 101.383C635.017 98.6484 638.012 93.2448 638.012 85.1719C638.012 76.4479 635.115 70.5885 629.32 67.5938C626.065 65.901 621.182 65.0547 614.672 65.0547H579.711ZM620.922 40.0547C631.013 40.25 638.76 41.487 644.164 43.7656C649.633 46.0443 654.255 49.3971 658.031 53.8242C661.156 57.4701 663.63 61.5065 665.453 65.9336C667.276 70.3607 668.188 75.4062 668.188 81.0703C668.188 87.9062 666.462 94.6445 663.012 101.285C659.561 107.861 653.865 112.516 645.922 115.25C652.562 117.919 657.25 121.728 659.984 126.676C662.784 131.559 664.184 139.046 664.184 149.137V158.805C664.184 165.38 664.444 169.84 664.965 172.184C665.746 175.895 667.569 178.629 670.434 180.387V184H637.328C636.417 180.81 635.766 178.238 635.375 176.285C634.594 172.249 634.171 168.115 634.105 163.883L633.91 150.504C633.78 141.324 632.087 135.204 628.832 132.145C625.642 129.085 619.62 127.555 610.766 127.555H579.711V184H550.316V40.0547H620.922ZM773.836 162.516C785.75 162.516 795.19 158.121 802.156 149.332C809.188 140.543 812.703 128.043 812.703 111.832C812.703 95.6862 809.188 83.2188 802.156 74.4297C795.19 65.5755 785.75 61.1484 773.836 61.1484C761.922 61.1484 752.417 65.543 745.32 74.332C738.224 83.1211 734.676 95.6211 734.676 111.832C734.676 128.043 738.224 140.543 745.32 149.332C752.417 158.121 761.922 162.516 773.836 162.516ZM842.781 111.832C842.781 137.678 835.522 157.47 821.004 171.207C810.132 182.405 794.409 188.004 773.836 188.004C753.263 188.004 737.54 182.405 726.668 171.207C712.085 157.47 704.793 137.678 704.793 111.832C704.793 85.4648 712.085 65.6732 726.668 52.457C737.54 41.2591 753.263 35.6602 773.836 35.6602C794.409 35.6602 810.132 41.2591 821.004 52.457C835.522 65.6732 842.781 85.4648 842.781 111.832ZM966.105 40.0547H997.355L948.234 184H919.816L871.184 40.0547H903.312L934.562 149.332L966.105 40.0547ZM1058.77 184H1028.88V40.0547H1058.77V184ZM1142.25 129.605H1178.77L1160.8 72.9648L1142.25 129.605ZM1144.1 40.0547H1178.09L1229.06 184H1196.45L1187.17 154.41H1134.14L1124.18 184H1092.73L1144.1 40.0547Z" fill="black"/>
<path d="M429.653 252.056C440.37 252.056 448.686 254.879 454.602 260.525C460.517 266.172 463.801 272.587 464.454 279.77H453.276C452.009 274.315 449.474 269.994 445.671 266.806C441.907 263.618 436.606 262.023 429.769 262.023C421.433 262.023 414.692 264.962 409.545 270.839C404.436 276.677 401.882 285.646 401.882 297.746C401.882 307.656 404.187 315.703 408.796 321.888C413.444 328.034 420.358 331.106 429.538 331.106C437.989 331.106 444.423 327.861 448.84 321.369C451.183 317.951 452.931 313.456 454.083 307.887H465.261C464.262 316.798 460.959 324.269 455.351 330.3C448.629 337.56 439.563 341.189 428.155 341.189C418.322 341.189 410.063 338.213 403.38 332.259C394.584 324.384 390.186 312.227 390.186 295.787C390.186 283.303 393.489 273.067 400.096 265.077C407.24 256.396 417.093 252.056 429.653 252.056ZM525.231 252.056C540.173 252.056 551.236 256.857 558.419 266.46C564.027 273.95 566.831 283.534 566.831 295.211C566.831 307.848 563.623 318.354 557.209 326.728C549.68 336.561 538.944 341.478 525.001 341.478C511.979 341.478 501.742 337.175 494.291 328.571C487.645 320.274 484.323 309.788 484.323 297.112C484.323 285.666 487.165 275.871 492.85 267.728C500.148 257.28 510.942 252.056 525.231 252.056ZM526.383 331.222C536.486 331.222 543.784 327.611 548.278 320.39C552.81 313.13 555.077 304.795 555.077 295.384C555.077 285.435 552.465 277.426 547.241 271.357C542.055 265.288 534.949 262.254 525.922 262.254C517.165 262.254 510.02 265.269 504.489 271.3C498.958 277.292 496.192 286.146 496.192 297.861C496.192 307.234 498.554 315.146 503.279 321.6C508.042 328.014 515.743 331.222 526.383 331.222ZM589.984 254.36H603.524L646.276 322.925V254.36H657.165V339H644.317L600.931 270.493V339H589.984V254.36ZM692.187 311.689C692.456 316.491 693.589 320.39 695.587 323.386C699.389 328.994 706.092 331.798 715.695 331.798C719.997 331.798 723.915 331.183 727.449 329.954C734.286 327.573 737.705 323.309 737.705 317.163C737.705 312.554 736.264 309.27 733.383 307.311C730.464 305.39 725.893 303.719 719.671 302.298L708.205 299.705C700.715 298.015 695.414 296.152 692.302 294.116C686.925 290.582 684.236 285.301 684.236 278.271C684.236 270.666 686.867 264.424 692.13 259.546C697.392 254.668 704.844 252.229 714.485 252.229C723.358 252.229 730.887 254.38 737.071 258.682C743.294 262.945 746.405 269.783 746.405 279.193H735.631C735.054 274.661 733.825 271.185 731.943 268.765C728.448 264.347 722.513 262.139 714.139 262.139C707.379 262.139 702.52 263.56 699.562 266.402C696.605 269.245 695.126 272.548 695.126 276.312C695.126 280.461 696.854 283.495 700.311 285.416C702.577 286.645 707.705 288.182 715.695 290.025L727.564 292.733C733.287 294.039 737.705 295.826 740.816 298.092C746.194 302.048 748.883 307.791 748.883 315.319C748.883 324.692 745.464 331.395 738.627 335.428C731.828 339.461 723.915 341.478 714.888 341.478C704.364 341.478 696.124 338.789 690.171 333.411C684.217 328.072 681.298 320.831 681.413 311.689H692.187ZM785.287 254.36V306.677C785.287 312.823 786.44 317.931 788.744 322.003C792.163 328.149 797.925 331.222 806.03 331.222C815.748 331.222 822.354 327.899 825.85 321.254C827.732 317.643 828.673 312.784 828.673 306.677V254.36H840.312V301.895C840.312 312.304 838.91 320.313 836.106 325.921C830.959 336.138 821.24 341.247 806.951 341.247C792.662 341.247 782.963 336.138 777.855 325.921C775.051 320.313 773.649 312.304 773.649 301.895V254.36H785.287ZM867.555 254.36H879.021V328.917H921.888V339H867.555V254.36ZM995.514 254.36V264.443H966.994V339H955.355V264.443H926.834V254.36H995.514ZM1018.09 254.36H1029.67V339H1018.09V254.36ZM1057.78 254.36H1071.32L1114.07 322.925V254.36H1124.96V339H1112.11L1068.73 270.493V339H1057.78V254.36ZM1189.08 252.171C1197.03 252.171 1203.91 253.707 1209.71 256.78C1218.12 261.198 1223.27 268.938 1225.15 280H1213.8C1212.42 273.816 1209.55 269.322 1205.21 266.518C1200.87 263.675 1195.4 262.254 1188.79 262.254C1180.96 262.254 1174.35 265.192 1168.97 271.069C1163.63 276.946 1160.96 285.704 1160.96 297.343C1160.96 307.407 1163.17 315.607 1167.59 321.945C1172.01 328.245 1179.21 331.395 1189.2 331.395C1196.84 331.395 1203.16 329.186 1208.15 324.769C1213.18 320.313 1215.76 313.13 1215.87 303.22H1189.37V293.713H1226.53V339H1219.16L1216.39 328.11C1212.51 332.374 1209.07 335.332 1206.08 336.983C1201.05 339.826 1194.65 341.247 1186.89 341.247C1176.87 341.247 1168.24 338.001 1161.02 331.51C1153.15 323.367 1149.21 312.189 1149.21 297.977C1149.21 283.803 1153.05 272.529 1160.73 264.155C1168.03 256.166 1177.48 252.171 1189.08 252.171Z" fill="black"/>
<path d="M199.968 336.837C221.123 330.949 245.128 316.171 260.556 300.585V300.614C360.088 200.112 280.762 30.8289 138.17 41.4795C48.914 48.1469 -24.0512 141.808 7.46633 229.697C16.274 231.861 31.8168 226.377 40.7972 221.932C87.6223 198.756 115.214 170.587 141.314 145.566L141.535 145.354C146.828 140.281 157.196 130.344 158.839 124.279C160.505 118.129 135.734 114.78 142.433 111.955C149.517 108.968 174.499 101.872 174.499 101.872C190.358 97.2541 201.867 93.2024 202.961 94.2992C204.055 95.396 198.362 147.06 198.362 147.06C197.532 153.986 192.023 138.097 181.583 137.723C171.143 137.35 86.5037 247.517 13.8274 251.546C10.9779 254.548 20.7353 270.394 22.8077 273.829C26.2329 279.457 42.1697 302.699 48.099 303.161C64.5049 300.921 69.7249 293.452 96.5709 272.165C123.417 250.878 160.33 213.16 162.94 209.426C165.55 205.691 153.246 203.824 153.246 203.824C150.655 201.948 183.633 192.541 185.878 193.436C188.67 194.561 185.195 221.966 184.784 223.165C184.373 224.364 179.346 215.401 177.109 218.015C177.109 218.015 120.061 274.779 108.875 284.489C97.6895 294.199 91.1055 299.289 71.2164 316.232C70.6983 318.195 77.8986 322.463 79.3377 323.589C86.1018 328.871 122.109 345.467 127.233 339.781C163.759 299.286 219.268 232.083 235.544 200.747C239.377 193.367 219.281 193.82 222.562 192.059C231.975 186.979 261.375 172.005 263.089 172.692C264.803 173.379 267.714 194.488 270.697 210.172C271.052 212.04 260.358 202.33 257.647 206.065C248.698 218.388 242.732 229.965 226.326 254.986C209.921 280.007 191.189 303.818 160.679 340.445C163.931 344.919 194.038 338.482 199.968 336.837Z" fill="#3FA9F5"/>
</svg>
