<svg width="50" height="49" viewBox="0 0 50 49" fill="none" xmlns="http://www.w3.org/2000/svg">
<path d="M42.7141 42.258C40.185 44.7953 36.2497 47.201 32.7816 48.1595C31.8096 48.4274 26.874 49.4752 26.3408 48.7469C31.3424 42.7843 38.7034 32.4378 41.8742 28.0821L41.9356 27.9975C42.6811 28.0304 43.5351 28.7869 44.1202 28.9796C44.2807 29.0312 44.4317 29.0406 44.5355 29.0172C44.5355 29.0172 44.6251 29.0406 44.7148 28.8715C44.8516 28.6131 43.5965 21.1892 43.1293 21.4382C40.2982 22.7773 38.0286 23.764 36.4856 24.591C35.9477 24.8776 37.6228 25.6999 38.6137 26.0053C34.702 33.8991 26.8457 42.0466 20.8578 48.6388C20.0179 49.5644 14.115 46.8627 13.0062 46.0028C12.7703 45.8196 12.1899 45.392 12.2748 45.0725C15.5353 42.3144 20.8012 38.0057 23.6229 34.7871C24.4439 33.8521 25.5433 32.5083 26.0435 31.8598C26.6569 31.0329 26.8174 30.8026 27.4544 29.7736C27.7092 29.3602 28.1763 28.5332 28.5868 28.8104C28.9879 29.0876 29.6438 29.5481 29.7098 29.3508C29.8655 28.8997 30.3468 24.6944 29.8891 24.5111C29.5211 24.3655 24.4675 26.0429 24.8922 26.3483C26.3927 27.429 26.152 27.2458 25.4065 28.3734C24.3731 29.9287 24.09 30.2576 24.09 30.2576C23.0425 31.6061 21.8582 32.8466 19.9566 34.6415C14.1103 39.8053 10.2175 42.4365 7.62233 42.2392C6.65031 42.164 4.30048 38.8186 3.73897 37.9023C3.39923 37.3432 1.79965 34.7636 2.26678 34.275C13.563 32.3344 21.3061 23.7687 29.0917 15.7904C29.3465 15.6588 29.6202 15.2078 30.3893 15.5649C31.4557 16.0629 32.5598 16.4717 32.8854 16.3495C32.8854 16.3495 33.3997 14.9493 33.4847 12.5013C33.5602 9.90767 33.395 8.79878 33.2723 8.67662C33.093 8.49807 31.1773 9.10889 28.5774 9.86068C28.5774 9.86068 26.9731 10.2366 25.1659 10.9273C24.3731 11.2139 25.3971 11.8529 25.5622 12.1207C25.7321 12.398 26.2228 12.8772 26.2511 13.1638C26.3644 14.3009 23.939 16.5704 23.1227 17.4725C19.0601 21.9457 15.2145 25.2582 6.68806 29.4541C5.21587 30.1777 2.66786 31.0705 1.22399 30.7181C-3.94281 16.4106 8.01869 1.16345 22.6509 0.0780533C46.0265 -1.65576 59.0308 25.9019 42.7141 42.2627V42.258Z" fill="#3FA9F5"/>
</svg>
